PathFileType	4	(X/Y/Z)	../Python\walking\Walking18\task.trc
DataRate	CameraRate	NumFrames	NumMarkers	Units	OrigDataRate	OrigDataStartFrame	OrigNumFrames
200.000000	200.000000	6	30	mm	200.000000	384	439
Frame#	Time	RBAK			CLAV			STRN			RASI			LASI			PE01			RTH1			RTH2			RTH3			RTB3			RHEE			RD5M			RTOE			LTH2			LTH3			LTB2			LTB3			LHEE			LTOE			LD5M			LTB1			C7			RTB1			RTB2			LPSI			PE03			PE02			RPSI			LTH1			T10			
		X1	Y1	Z1	X2	Y2	Z2	X3	Y3	Z3	X4	Y4	Z4	X5	Y5	Z5	X6	Y6	Z6	X7	Y7	Z7	X8	Y8	Z8	X9	Y9	Z9	X10	Y10	Z10	X11	Y11	Z11	X12	Y12	Z12	X13	Y13	Z13	X14	Y14	Z14	X15	Y15	Z15	X16	Y16	Z16	X17	Y17	Z17	X18	Y18	Z18	X19	Y19	Z19	X20	Y20	Z20	X21	Y21	Z21	X22	Y22	Z22	X23	Y23	Z23	X24	Y24	Z24	X25	Y25	Z25	X26	Y26	Z26	X27	Y27	Z27	X28	Y28	Z28	X29	Y29	Z29	X30	Y30	Z30	

385	1.92	683.8781738281252	1227.199462890625	288.8170471191407	833.1099243164067	1222.02880859375	147.5078125000001	897.7091674804692	1040.793090820313	155.5597381591797	863.7136230468755	838.406860351563	312.5633239746095	867.9285278320317	847.547973632813	84.11794281005862	673.2465820312502	924.4545898437505	205.8338317871095	712.2927856445315	566.6485595703127	333.8030090332032	704.545837402344	489.4489440917971	314.6807556152345	747.9981689453127	533.504333496094	320.4125061035157	539.2109985351565	233.1393127441407	287.8274841308595	363.7721557617189	123.8728942871094	217.1991119384767	476.3374023437502	21.47328758239747	277.6624450683595	514.1887207031252	28.65024375915529	226.5089721679689	894.7561645507817	538.761169433594	69.90602111816409	946.7314453125005	598.1502685546877	63.54029083251956	976.0245971679692	201.5970153808595	95.80002593994143	1008.399963378907	238.4626007080079	100.4475479125977	973.6373901367192	32.35578536987306	152.1471099853516	1163.564453125	39.34037399291994	158.5917663574219	1125.217895507813	21.08481025695801	110.9470825195313	965.0765991210942	279.3501892089845	83.65901947021487	712.6518554687502	1320.293212890625	166.9012451171876	595.1369628906252	290.332733154297	296.271697998047	534.0493164062502	281.613006591797	302.7790527343751	665.698669433594	886.1361694335942	165.1494445800782	656.232604980469	868.123657226563	173.3874511718751	652.5554199218752	864.2066040039067	223.5638732910157	666.990661621094	890.521850585938	251.3928222656251	898.1506347656255	597.9343261718752	53.26290130615237	685.3582153320315	1023.164306640625	203.4812927246095	
386	1.925	690.7740478515627	1227.990966796875	288.287078857422	840.2793579101567	1222.89892578125	147.1899719238282	905.1542358398442	1041.781372070313	155.4612121582032	871.0588378906255	838.599487304688	311.9353027343751	875.179809570313	848.8818969726567	83.6202087402344	680.4678344726565	925.222045898438	206.3834991455079	721.464538574219	566.184020996094	333.7125854492189	714.373962402344	488.9018554687502	314.8318481445314	757.4306640625002	533.341735839844	320.3066711425782	546.1265869140627	234.9171905517579	287.9675598144532	369.8357238769532	129.5646362304688	216.3879394531251	477.2677307128909	22.54568672180176	277.3669433593751	514.5026855468752	28.54427719116212	226.4630584716798	903.0908203125005	540.2901000976565	69.20022583007815	954.936401367188	600.2503051757815	64.63564300537112	979.8423461914067	202.2227325439454	95.25391387939456	1012.567077636719	238.6035156250001	100.5402450561524	974.0374145507817	32.93201065063478	152.0596160888672	1164.397338867188	37.47285842895509	158.5660552978516	1125.474365234375	19.87016296386719	110.4589538574219	970.199340820313	280.1778259277345	82.99139404296878	719.6315917968752	1320.92333984375	166.2801971435547	602.863464355469	291.2449340820314	296.657440185547	541.567810058594	283.5396118164064	302.6731567382814	672.9881591796877	887.218627929688	165.2384185791016	663.630310058594	869.066040039063	173.5335235595704	660.1427001953127	864.7304687500005	223.7432861328126	674.6425781250002	891.0498046875005	251.7430572509767	906.4721069335942	599.590270996094	53.10806655883792	692.727478027344	1023.851684570313	203.5311889648439	
387	1.93	697.6478271484377	1228.859008789063	287.7648315429689	847.4392700195317	1223.85693359375	146.9051971435547	912.5728149414067	1042.8515625	155.3847808837891	878.348022460938	838.888549804688	311.274627685547	882.3884277343755	850.2637329101567	83.0999450683594	687.6357421875002	926.0447387695317	206.8838043212892	730.8695068359377	565.6850585937502	333.6663208007814	724.559509277344	488.3050537109377	315.0529785156251	767.141540527344	533.1933593750002	320.2433471679689	553.4904785156252	236.7069854736329	288.1194763183595	376.5864562988282	135.3872070312501	215.4322357177736	478.3243103027346	23.78203582763673	276.984100341797	514.8880004882815	28.52188301086427	226.3541564941407	911.1021118164067	541.7427368164065	68.5162048339844	962.890258789063	602.141052246094	65.48452758789065	983.4368286132817	202.787322998047	94.6945495605469	1016.492858886719	238.7167205810548	100.6007690429688	974.4064331054692	33.43239212036134	151.9763488769532	1165.113037109375	35.95153045654298	158.5588684082032	1125.686767578125	18.92728233337403	109.972770690918	975.0449218750005	280.9186096191407	82.31143951416018	726.604675292969	1321.637084960938	165.6797485351563	610.999206542969	292.1445922851564	297.0926818847657	549.5161132812502	285.4634704589845	302.5456542968751	680.2371826171877	888.3588867187505	165.2867736816407	670.974304199219	870.0493774414067	173.6613464355469	667.6853637695315	865.3207397460942	223.9025878906251	682.2445068359377	891.6442260742192	252.0553588867189	914.5079956054692	601.151794433594	52.91077804565433	700.0650634765627	1024.619140625	203.5397796630861	
388	1.935	704.4963378906252	1229.797973632813	287.2508239746095	854.5876464843755	1224.896728515625	146.655746459961	919.9617309570317	1043.996459960938	155.3336486816407	885.5755004882817	839.2715454101567	310.5875244140626	889.551635742188	851.6818847656255	82.56176757812503	694.7462158203127	926.9172363281255	207.3257141113282	740.4912109375002	565.152770996094	333.6652832031251	735.0796508789065	487.6606750488284	315.343963623047	777.1113281250005	533.0566406250002	320.2274169921876	561.3093261718752	238.4925842285157	288.2887268066407	384.0401916503909	141.3211822509766	214.3616027832032	479.5299072265627	25.2086868286133	276.5036926269532	515.3728637695315	28.61223030090333	226.1784057617189	918.739379882813	543.1020507812502	67.86261749267581	970.5646972656255	603.781921386719	66.07886505126956	986.7886352539067	203.2864379882814	94.14516448974612	1020.163269042969	238.7963867187501	100.6357421875001	974.7407226562505	33.85308074951173	151.901840209961	1165.720336914063	34.7460174560547	158.5821533203126	1125.862915039063	18.22874069213868	109.5104751586915	979.588500976563	281.5702514648439	81.64785766601565	733.569274902344	1322.43017578125	165.1016693115235	619.5489501953127	293.0223388671876	297.5774841308595	557.9008789062502	287.3673706054689	302.4028320312501	687.4426269531252	889.5503540039067	165.2890167236329	678.2595214843752	871.0680541992192	173.7630920410157	675.174743652344	865.9736328125005	224.0331573486329	689.786560058594	892.3009643554692	252.3203735351564	922.2290039062505	602.5991821289065	52.67045593261722	707.3670043945315	1025.4619140625	203.5033721923829	
389	1.94	711.3164672851565	1230.801635742188	286.7453613281251	861.7224121093755	1226.01171875	146.443588256836	927.317749023438	1045.208618164063	155.3108367919922	892.736450195313	839.7453613281255	309.8805541992189	896.6668090820317	853.1246948242192	82.0103454589844	701.7952880859377	927.8342285156255	207.7013092041017	750.3093872070315	564.5916748046877	333.7089843750001	745.9039306640627	486.9756469726565	315.7016601562501	787.3156127929692	532.9317626953127	320.2627563476564	569.5852661132815	240.2587890625001	288.4799194335939	392.2019958496096	147.3473510742188	213.2107696533204	480.9129333496096	26.85499763488771	275.9185791015626	515.9939575195315	28.84650039672853	225.9353027343751	925.9566040039067	544.3543090820315	67.24517059326175	977.9296875000005	605.142761230469	66.42544555664065	989.8825073242192	203.7201232910157	93.62483215332034	1023.567687988282	238.8394470214845	100.650375366211	975.036499023438	34.19398498535158	151.8391571044922	1166.227294921875	33.82105255126955	158.6408081054688	1126.008422851563	17.74337196350098	109.0892181396485	983.811889648438	282.1351318359376	81.0238952636719	740.5236816406252	1323.297973632813	164.5475616455079	628.514343261719	293.8710021972657	298.1096801757814	566.7256469726565	289.2352600097657	302.2521972656251	694.6018066406252	890.7868041992192	165.2404785156251	685.4812011718752	872.1170043945317	173.8314666748047	682.602478027344	866.685424804688	224.1269989013673	697.2595214843752	893.0155639648442	252.5295715332032	929.6089477539067	603.9168701171877	52.38731765747073	714.6296386718752	1026.37548828125	203.4189453125001	
390	1.945	718.105163574219	1231.863891601563	286.2486572265626	868.8415527343755	1227.195678710938	146.2704772949219	934.6378784179692	1046.480712890625	155.3190460205079	899.8268432617192	840.3063354492192	309.1604309082032	903.7316284179692	854.5806274414067	81.45032501220706	708.7791748046877	928.7909545898442	208.0039978027345	760.3007812500002	564.0097656250002	333.7955017089845	756.9956665039065	486.2617187500002	316.1203918457032	797.7260742187505	532.8217773437502	320.3521423339845	578.3164672851565	241.992156982422	288.6965637207032	401.0656433105471	153.4463806152344	212.0173797607423	482.5085449218752	28.75183296203615	275.2261657714845	516.7974243164065	29.25625801086427	225.6282806396486	932.7156372070317	545.4890747070315	66.66625976562503	984.9555664062505	606.2051391601565	66.54327392578128	992.707885742188	204.0917053222657	93.14871215820315	1026.699829101563	238.8452453613282	100.6479797363282	975.290649414063	34.45820999145509	151.7899780273438	1166.641845703125	33.13832092285158	158.7337799072266	1126.127807617188	17.43780517578126	108.7209396362305	987.7036132812505	282.6189575195314	80.45676422119143	747.4661865234377	1324.235961914063	164.0189056396485	637.893981933594	294.6862792968751	298.6849060058595	575.9900512695315	291.0530700683595	302.1024780273439	701.7119750976565	892.0624389648442	165.1372985839844	692.635192871094	873.1916503906255	173.8598632812501	689.960876464844	867.4525756835942	224.1768951416017	704.6546020507815	893.7836303710942	252.675506591797	936.625854492188	605.093933105469	52.06225967407229	721.8496093750002	1027.3544921875	203.284149169922	
